<svg viewBox="0 0 900 600" fill="#de1545" xmlns="http://www.w3.org/2000/svg">
  <path d="M1.96826 199.304c.18848 13.194 10.88454 20.874 28.22434 20.874 17.5283 0 28.6956-8.623 28.6956-22.146 0-10.743-6.0313-16.822-19.4602-19.413l-8.8113-1.649c-7.115-1.461-10.1306-3.487-10.1306-7.162 0-4.147 4.0051-6.88 10.0364-6.88 6.2197 0 10.7902 2.969 11.1201 7.916h15.9262c-.1884-12.769-10.2248-21.015-27.2348-21.015-15.7378 0-27.0464 8.482-27.0464 21.675 0 10.319 6.45532 17.104 18.989 19.507l8.9055 1.744c7.7276 1.602 10.6018 3.439 10.6018 7.209 0 4.099-4.382 7.115-11.1201 7.115-6.4082 0-11.6384-3.11-12.251-7.775H1.96826zM64.0732 219h16.6801v-51.313H64.0732V219zm8.3401-55.459c4.8532 0 8.5285-3.581 8.5285-8.199s-3.6753-8.152-8.5285-8.152c-4.8533 0-8.5757 3.534-8.5757 8.152 0 4.618 3.7224 8.199 8.5757 8.199zM86.975 219h16.727v-29.025c0-5.655 3.299-9.66 8.623-9.66 5.466 0 8.246 3.487 8.246 9.33V219h16.68v-32.936c0-12.204-6.361-19.366-17.811-19.366-7.869 0-13.24 3.816-15.879 10.649h-.33v-9.66H86.975V219zM168.352 206.231c-6.032 0-9.613-4.618-9.613-12.911 0-8.246 3.628-13.335 9.613-13.335 5.937 0 9.659 5.136 9.659 13.335 0 8.293-3.675 12.911-9.659 12.911zm-.519 32.088c15.974 0 26.811-7.633 26.811-19.884v-50.748h-16.586v9.094h-.33c-2.309-5.795-8.01-9.848-15.455-9.848-12.863 0-20.638 9.848-20.638 26.246 0 16.067 8.152 25.397 20.403 25.397 7.539 0 13.57-3.722 15.596-9.141h.33v9.424c0 5.089-3.346 8.528-9.754 8.528-4.759 0-8.246-2.073-9.047-5.042h-16.161c.942 9.33 10.224 15.974 24.831 15.974zM201.101 219h16.728v-67.993h-16.728V219zM248.505 178.336c5.277 0 9 3.675 9.283 9.141h-18.66c.424-5.324 4.241-9.141 9.377-9.141zm9.659 24.455c-1.178 3.487-4.664 5.607-9.141 5.607-6.031 0-10.13-4.241-10.13-10.366v-1.037h34.632v-4.712c0-15.69-9.848-25.821-25.303-25.821-15.69 0-25.538 10.555-25.538 27.141s9.753 26.622 26.104 26.622c13.429 0 22.853-6.832 24.455-17.434h-15.079zM311.223 198.503v-14.324h-31.005v14.324h31.005zM4.13574 226.007V294H21.4285v-19.931h11.1201c15.1252 0 25.5386-9.471 25.5386-23.984 0-14.607-9.8951-24.078-24.502-24.078H4.13574zm17.29276 13.241h7.5861c7.2564 0 11.5914 3.816 11.5914 10.884 0 7.115-4.335 10.932-11.6856 10.932h-7.4919v-21.816zM81.1303 283.257c-3.958 0-6.6438-1.979-6.6438-5.23 0-3.016 2.4502-5.042 6.8323-5.372l9.3296-.613v3.534c0 4.571-4.4292 7.681-9.5181 7.681zm-5.937 11.497c6.1726 0 12.4394-2.874 15.2195-8.057h.3298V294h16.2564v-35.198c0-10.319-9.0943-17.34-22.806-17.34-14.3242 0-23.2768 6.927-23.748 17.434h15.031c.4712-3.157 3.3455-5.513 7.8689-5.513 4.3821 0 7.3035 2.262 7.3035 6.361v2.922l-12.0154.707c-13.2876.801-20.6853 6.172-20.6853 15.784 0 9.283 7.7275 15.597 17.2456 15.597zM138.241 281.231c-6.032 0-9.613-4.618-9.613-12.911 0-8.246 3.628-13.335 9.613-13.335 5.937 0 9.659 5.136 9.659 13.335 0 8.293-3.675 12.911-9.659 12.911zm-.519 32.088c15.974 0 26.811-7.633 26.811-19.884v-50.748h-16.586v9.094h-.33c-2.309-5.795-8.01-9.848-15.455-9.848-12.863 0-20.638 9.848-20.638 26.246 0 16.067 8.152 25.397 20.403 25.397 7.539 0 13.57-3.722 15.596-9.141h.33v9.424c0 5.089-3.346 8.528-9.754 8.528-4.759 0-8.246-2.073-9.047-5.042H112.89c.943 9.33 10.225 15.974 24.832 15.974zM194.974 253.336c5.277 0 9 3.675 9.282 9.141h-18.659c.424-5.324 4.241-9.141 9.377-9.141zm9.659 24.455c-1.178 3.487-4.664 5.607-9.141 5.607-6.031 0-10.13-4.241-10.13-10.366v-1.037h34.632v-4.712c0-15.69-9.848-25.821-25.303-25.821-15.69 0-25.538 10.555-25.538 27.141s9.753 26.622 26.104 26.622c13.429 0 22.852-6.832 24.454-17.434h-15.078zM78.7725 369v-67.993H58.7939l-17.1513 43.68h-.377l-17.1513-43.68H4.13574V369H19.3552v-42.454h.377l16.7744 41.747h9.895l16.8215-41.747h.3299V369h15.2195zM106.292 358.257c-3.958 0-6.6439-1.979-6.6439-5.23 0-3.016 2.4499-5.042 6.8319-5.372l9.33-.613v3.534c0 4.571-4.429 7.681-9.518 7.681zm-5.937 11.497c6.173 0 12.439-2.874 15.219-8.057h.33V369h16.256v-35.198c0-10.319-9.094-17.34-22.805-17.34-14.3246 0-23.2772 6.927-23.7484 17.434h15.0314c.471-3.157 3.345-5.513 7.869-5.513 4.382 0 7.303 2.262 7.303 6.361v2.922l-12.015.707c-13.288.801-20.6857 6.172-20.6857 15.784 0 9.283 7.7275 15.597 17.2457 15.597zM138.241 369h16.727v-26.999c0-7.162 3.817-11.12 10.837-11.12 1.979 0 3.911.377 5.325.942v-14.23c-1.131-.424-2.545-.66-4.241-.66-6.031 0-10.178 3.534-12.062 10.461h-.33v-9.707h-16.256V369zM191.581 337.195h-.282v-36.188h-16.728V369h16.728v-15.738l3.015-3.628L206.801 369h19.224l-19.318-29.355 18.235-21.958H206.33l-14.749 19.508z"/>
  <path d="M243.461 369.754c7.634 0 13.571-4.099 15.644-9.565h.33V369h16.586v-67.993h-16.68v25.727h-.33c-2.262-5.748-7.916-9.801-15.361-9.801-12.817 0-20.638 9.895-20.638 26.293 0 16.586 7.68 26.528 20.449 26.528zm6.267-39.769c5.984 0 9.66 5.136 9.66 13.382 0 8.34-3.629 13.335-9.66 13.335-6.031 0-9.612-5.042-9.612-13.335 0-8.246 3.628-13.382 9.612-13.382zM306.98 370.225c16.162 0 26.245-9.754 26.245-26.905 0-16.821-10.225-26.858-26.245-26.858-15.926 0-26.245 10.084-26.245 26.858 0 17.104 10.083 26.905 26.245 26.905zm0-12.251c-5.749 0-9.283-5.23-9.283-14.607 0-9.235 3.629-14.654 9.283-14.654 5.701 0 9.329 5.419 9.329 14.654 0 9.377-3.628 14.607-9.329 14.607zM412.387 317.687h-16.491l-6.503 36.235h-.33l-7.916-36.235h-15.973l-7.822 36.235h-.33l-6.549-36.235h-16.869L346.939 369h17.717l8.01-34.538h.33L381.147 369h18l13.24-51.313zM415.169 369h16.727v-29.025c0-5.655 3.299-9.66 8.623-9.66 5.466 0 8.246 3.487 8.246 9.33V369h16.68v-32.936c0-12.204-6.361-19.366-17.811-19.366-7.869 0-13.24 3.816-15.879 10.649h-.33v-9.66h-16.256V369zM46.4487 401.546h.377L58.2756 444h16.3033l17.7639-67.993H74.4846l-9.1882 45.941h-.377l-11.3557-45.941h-13.853L28.355 421.948h-.377l-9.1882-45.941H.931641L18.6956 444h16.3032l11.4499-42.454zM114.679 403.336c5.277 0 9 3.675 9.283 9.141h-18.66c.424-5.324 4.241-9.141 9.377-9.141zm9.66 24.455c-1.178 3.487-4.665 5.607-9.142 5.607-6.031 0-10.13-4.241-10.13-10.366v-1.037h34.632v-4.712c0-15.69-9.848-25.821-25.303-25.821-15.6903 0-25.5382 10.555-25.5382 27.141s9.7537 26.622 26.1042 26.622c13.429 0 22.853-6.832 24.455-17.434h-15.078zM177.255 444.754c12.864 0 20.309-9.66 20.309-26.387 0-16.774-7.492-26.434-20.45-26.434-7.304 0-12.911 3.676-15.502 9.848h-.33v-25.774h-16.727V444h16.633v-8.811h.329c2.592 5.937 8.199 9.565 15.738 9.565zm-6.408-39.769c5.89 0 9.659 5.231 9.659 13.382 0 8.152-3.722 13.335-9.659 13.335-5.843 0-9.612-5.136-9.659-13.335.047-8.104 3.863-13.382 9.659-13.382zM201.335 408.237c0 7.868 5.277 13.146 15.314 15.266l9.706 2.026c4.005.848 5.56 2.026 5.56 4.1 0 2.733-2.733 4.335-7.162 4.335-4.9 0-7.963-2.262-8.434-6.079H200.11c.707 10.508 9.377 17.34 24.361 17.34 14.324 0 23.983-6.832 23.983-17.481 0-7.775-4.382-11.968-14.607-14.136l-10.743-2.167c-3.864-.801-5.748-2.262-5.748-4.288 0-2.639 2.638-4.429 6.738-4.429 4.617 0 7.539 2.308 7.68 5.984h15.267c-.095-10.602-8.812-17.246-22.806-17.246-14.136 0-22.9 6.503-22.9 16.775zM252.603 444h16.68v-51.313h-16.68V444zm8.34-55.459c4.853 0 8.528-3.581 8.528-8.199s-3.675-8.152-8.528-8.152c-4.854 0-8.576 3.534-8.576 8.152 0 4.618 3.722 8.199 8.576 8.199zM279.698 381.19v11.497h-6.974v12.298h6.974v24.926c0 10.084 5.277 14.183 18.612 14.183 3.251 0 5.701-.282 7.303-.612v-11.874c-.989.188-1.979.235-3.298.235-4.005 0-5.89-1.79-5.89-5.324v-21.534h9.236v-12.298h-9.236V381.19h-16.727zM334.499 403.336c5.278 0 9 3.675 9.283 9.141h-18.659c.424-5.324 4.24-9.141 9.376-9.141zm9.66 24.455c-1.178 3.487-4.665 5.607-9.141 5.607-6.032 0-10.131-4.241-10.131-10.366v-1.037h34.633v-4.712c0-15.69-9.848-25.821-25.303-25.821-15.691 0-25.539 10.555-25.539 27.141s9.754 26.622 26.104 26.622c13.429 0 22.853-6.832 24.455-17.434h-15.078z"/>
</svg>
